<svg 
 xmlns="http://www.w3.org/2000/svg"
 xmlns:xlink="http://www.w3.org/1999/xlink"
 width="463px" height="612px">
<path fill-rule="evenodd"  fill="rgb(237, 240, 252)"
 d="M225.411,74.322 C246.506,68.578 244.803,33.463 244.365,16.283 C243.897,7.027 245.335,1.779 251.253,0.442 C254.185,-0.238 258.207,0.020 263.290,1.196 C264.559,1.491 265.893,1.844 267.287,2.256 C267.984,2.463 268.696,2.684 269.423,2.920 C270.149,3.156 270.890,3.407 271.645,3.673 C274.665,4.739 277.908,6.049 281.321,7.626 C308.974,19.334 342.088,48.477 355.594,93.334 C370.953,135.871 370.205,198.052 373.766,217.787 C376.500,245.370 385.591,224.368 398.421,207.719 C410.493,190.531 430.914,176.887 444.913,190.513 C452.473,194.894 457.567,206.373 460.117,221.123 C461.410,228.503 462.102,236.714 462.316,245.301 C462.369,247.448 462.393,249.619 462.390,251.805 C462.387,253.992 462.356,256.194 462.300,258.406 C462.189,262.830 461.978,267.289 461.685,271.725 C459.182,307.780 452.322,343.686 446.204,362.125 C437.312,383.530 430.647,392.886 409.769,425.239 C389.727,454.204 355.777,514.657 301.004,563.334 C273.813,586.754 241.484,605.027 206.415,610.020 C171.581,615.595 134.008,607.890 101.733,592.771 C93.400,588.956 85.436,584.740 77.909,580.260 C76.027,579.140 74.173,578.003 72.346,576.851 C70.520,575.700 68.722,574.533 66.953,573.354 C63.416,570.996 59.995,568.586 56.700,566.138 C43.514,556.337 32.340,545.969 23.559,535.588 C5.936,514.665 -1.890,494.257 0.814,473.076 C3.042,430.229 38.105,361.316 58.527,294.659 C69.121,261.716 73.594,230.400 73.252,203.163 C73.190,189.492 72.141,176.687 71.209,164.866 C71.094,163.388 70.981,161.927 70.873,160.482 C70.766,159.037 70.663,157.609 70.568,156.197 C70.378,153.374 70.220,150.619 70.114,147.938 C69.902,142.577 69.901,137.512 70.291,132.812 C66.312,92.003 93.784,76.146 132.156,75.053 C169.890,72.689 209.436,86.266 225.411,74.322 L225.411,74.322 Z"/>
</svg>